<svg width="138" height="134" viewBox="0 0 138 134" fill="none" xmlns="http://www.w3.org/2000/svg">
<g clip-path="url(#clip0_1969_31900)">
<path d="M93.944 102.615L30.099 101.428C23.4513 101.305 18.0194 96.0511 17.6808 89.395L12.3566 4.26791L93.944 4.39117" fill="#212121"/>
<path d="M107.655 18.8897C107.609 20.3843 107.562 21.9558 107.793 22.3102C108.347 23.2193 109.455 22.0945 108.963 21.4474C108.47 20.8003 106.562 21.0622 106.131 21.1855" stroke="#444444" stroke-width="0.5" stroke-linecap="round" stroke-linejoin="round"/>
<path d="M108.794 10.2615C109.748 9.16753 111.948 10.0304 111.917 11.4787C111.871 13.9131 107.362 14.6372 107.778 17.0408" stroke="#444444" stroke-width="0.5" stroke-linecap="round" stroke-linejoin="round"/>
<path d="M119.965 50.198C119.965 66.4684 106.27 79.8576 90.0201 79.8576C73.7703 79.8576 60.075 66.4684 60.075 50.198C60.075 33.9276 73.7703 20.7078 90.0201 20.7078C106.27 20.7078 119.965 33.943 119.965 50.198Z" fill="#26CEEA"/>
<path d="M92.99 45.2676C95.5444 48.4878 102.5 48.7189 105.085 45.2676" stroke="#444444" stroke-width="0.5" stroke-linecap="round" stroke-linejoin="round"/>
<path d="M92.9899 40.861C94.5197 40.861 95.7598 39.3089 95.7598 37.3943C95.7598 35.4797 94.5197 33.9276 92.9899 33.9276C91.4602 33.9276 90.2201 35.4797 90.2201 37.3943C90.2201 39.3089 91.4602 40.861 92.9899 40.861Z" fill="#F0FBFF"/>
<path d="M93.4978 39.9057C94.6026 39.9057 95.4982 38.7813 95.4982 37.3943C95.4982 36.0072 94.6026 34.8828 93.4978 34.8828C92.3929 34.8828 91.4973 36.0072 91.4973 37.3943C91.4973 38.7813 92.3929 39.9057 93.4978 39.9057Z" fill="#444444"/>
<path d="M105.408 40.7377C106.878 40.7377 108.07 39.2408 108.07 37.3943C108.07 35.5477 106.878 34.0508 105.408 34.0508C103.938 34.0508 102.746 35.5477 102.746 37.3943C102.746 39.2408 103.938 40.7377 105.408 40.7377Z" fill="#F0FBFF"/>
<path d="M105.839 39.9673C106.901 39.9673 107.762 38.8843 107.762 37.5483C107.762 36.2124 106.901 35.1293 105.839 35.1293C104.777 35.1293 103.915 36.2124 103.915 37.5483C103.915 38.8843 104.777 39.9673 105.839 39.9673Z" fill="#444444"/>
<path d="M82.7569 120.457C101.751 120.457 117.149 105.039 117.149 86.0207C117.149 67.0022 101.751 51.5847 82.7569 51.5847C63.7626 51.5847 48.3646 67.0022 48.3646 86.0207C48.3646 105.039 63.7626 120.457 82.7569 120.457Z" fill="#FFDB45"/>
<path d="M93.19 95.2036C88.035 96.3746 82.7415 94.2483 79.6947 89.965" stroke="#444444" stroke-width="0.75" stroke-linecap="round" stroke-linejoin="round"/>
<path d="M99.6523 87.6271C100.449 85.5726 99.7654 83.3902 98.1255 82.7527C96.4855 82.1151 94.5102 83.2638 93.7135 85.3183C92.9168 87.3728 93.6004 89.5551 95.2403 90.1927C96.8803 90.8302 98.8556 89.6816 99.6523 87.6271Z" fill="#FFFEF5"/>
<path d="M98.1694 87.2364C98.7446 85.753 98.254 84.1785 97.0736 83.7196C95.8931 83.2607 94.4699 84.0911 93.8947 85.5745C93.3195 87.0579 93.8101 88.6324 94.9905 89.0913C96.1709 89.5502 97.5942 88.7197 98.1694 87.2364Z" fill="#444444"/>
<path d="M85.3081 82.0451C86.1048 79.9906 85.4213 77.8082 83.7813 77.1707C82.1414 76.5331 80.1661 77.6818 79.3694 79.7363C78.5727 81.7908 79.2563 83.9731 80.8962 84.6107C82.5362 85.2482 84.5114 84.0996 85.3081 82.0451Z" fill="#FFFEF5"/>
<path d="M83.9692 81.718C84.5444 80.2346 84.0538 78.6601 82.8734 78.2012C81.693 77.7423 80.2697 78.5727 79.6945 80.0561C79.1193 81.5395 79.6099 83.114 80.7903 83.5729C81.9707 84.0318 83.394 83.2014 83.9692 81.718Z" fill="#444444"/>
<path d="M58.8285 66.869C58.7823 67.3159 58.7054 68.1325 58.5823 68.5331C57.9052 70.9058 55.9509 72.4312 54.2121 71.9381C52.4732 71.4451 51.6269 69.1185 52.3039 66.7458C52.4117 66.3452 52.7964 65.4978 52.9656 65.1126C53.0118 65.0047 53.3196 65.0047 53.3196 65.0047L58.5669 66.5147C58.5669 66.5147 58.8285 66.6995 58.8131 66.8844L58.8285 66.869Z" fill="#C5FF2E"/>
<path d="M58.7702 73.528C59.265 71.7933 57.5993 69.7961 55.0497 69.0669C52.5001 68.3378 50.0321 69.1529 49.5373 70.8876C49.0425 72.6222 50.7082 74.6195 53.2578 75.3486C55.8074 76.0777 58.2754 75.2626 58.7702 73.528Z" fill="#B0EC00"/>
<path opacity="0.49" d="M50.9959 118.33C38.3777 104.864 35.3617 84.9884 35.7464 66.5301C35.8541 61.2453 36.208 55.8834 38.07 50.9376C42.0401 40.445 52.0577 33.6964 61.4752 27.6258C64.7221 25.5304 42.3171 33.7427 38.6547 34.9753C16.419 42.448 57.4743 28.1805 61.4752 27.6258C59.1516 28.5811 56.828 24.6984 56.828 24.6984L85.3574 27.4101C86.4808 27.518 87.2809 28.5503 87.0963 29.6597C86.4654 33.6194 85.3421 42.7407 86.45 51.7696C86.45 51.7696 85.4344 51.6155 83.9879 51.5693C72.8777 54.1578 70.6926 108.1 79.2638 120.457L70.2925 129.054L47.5952 117.853" fill="#757575"/>
<path d="M63.3371 133.137L9.34046 102.938L6.70911 7.79625C6.70911 7.39565 6.89376 7.02587 7.2323 6.82557L10.6792 4.73013L67.6765 15.084C69.2461 15.4692 70.3541 16.8867 70.3541 20.0453V128.361L63.3217 133.137H63.3371Z" fill="#A0886E" stroke="#BA987F" stroke-width="0.75" stroke-miterlimit="10"/>
<path d="M61.9523 133.291L8.78656 104.186C7.69401 103.585 7.01693 102.445 7.01693 101.197L6.83228 7.31861L61.4445 19.8296C63.014 20.2148 64.122 21.6323 64.122 23.2501V131.858C64.122 132.983 62.9679 133.738 61.9523 133.276V133.291Z" fill="#99774B" stroke="#BA987F" stroke-width="0.75" stroke-linejoin="round"/>
<path d="M63.6603 20.8927L69.9078 16.1472" stroke="#BA987F" stroke-width="0.75" stroke-miterlimit="10"/>
<path d="M14.5879 74.2647V97.0063L54.2737 117.683L54.1813 92.1221L14.5879 74.2647Z" stroke="#BA987F" stroke-width="0.75" stroke-linejoin="round"/>
<path d="M14.0646 17.5955L13.9877 39.5513L54.2582 52.9251V27.3639L14.0646 17.5955Z" stroke="#BA987F" stroke-width="0.75" stroke-linejoin="round"/>
<path d="M13.9108 45.6836V68.5176L29.6989 74.8502L29.8374 51.1379L13.9108 45.6836Z" stroke="#BA987F" stroke-width="0.75" stroke-linejoin="round"/>
<path d="M35.7618 53.8496V76.8994L54.4122 84.8189L54.2583 59.612L35.7618 53.8496Z" stroke="#BA987F" stroke-width="0.75" stroke-linejoin="round"/>
<path opacity="0.31" d="M59.5978 73.6176C59.4439 72.5853 58.5514 70.3049 58.4437 70.0276L58.0898 70.1663L56.9203 70.4282C56.9203 70.4282 56.828 70.2741 56.7664 70.2279L56.2586 70.8134C56.7202 71.214 56.828 73.3248 56.551 74.3263C55.2738 78.8253 57.1357 80.551 57.9974 81.0749C58.536 81.3984 59.1515 81.5679 59.7055 81.5679C60.2595 81.5679 60.7519 81.4138 61.0904 81.1057C61.8137 80.4277 62.183 79.6111 62.1984 78.6713C62.2138 76.4063 60.121 74.126 59.6286 73.633L59.5978 73.6176Z" fill="black"/>
<path d="M57.8898 67.3313C57.7974 67.3159 57.6897 67.3313 57.5974 67.3775L54.4274 69.2726C53.7965 69.3343 50.3342 69.7349 49.6725 71.7378C49.1955 72.5699 48.7646 74.542 50.4727 76.0982C51.1652 76.7299 52.0731 77.0535 52.9964 77.0535C53.5503 77.0535 54.1043 76.9302 54.6121 76.6991C55.8278 76.1136 56.5356 74.9426 56.4894 73.5559L56.828 72.4312L59.844 70.3049C59.9671 70.2125 60.0287 70.043 59.9979 69.8889C59.9671 69.7965 59.4132 67.701 57.8898 67.3313Z" fill="#825525"/>
<path d="M54.7968 69.0569C55.5354 69.5808 56.6279 71.1215 56.8126 72.5082" stroke="#BA987F" stroke-width="0.25" stroke-miterlimit="10"/>
<path d="M98.9143 22.0175V4.03679C98.9143 2.12625 97.3447 0.585487 95.4059 0.585487H2.93909C1.6311 0.585487 0.584717 1.6178 0.584717 2.91204V101.536C0.584717 102.63 1.46184 103.539 2.55439 103.57L7.4324 103.709V7.31861H92.9899V20.8311" fill="#99774B"/>
<path d="M98.9143 22.0175V4.03679C98.9143 2.12625 97.3448 0.585487 95.4059 0.585487H2.93909C1.6311 0.585487 0.584717 1.6178 0.584717 2.91204V101.536C0.584717 102.63 1.46184 103.539 2.55439 103.57L7.4324 103.709V7.31861H92.9899V20.8311" stroke="#BA987F" stroke-width="0.75" stroke-linejoin="round"/>
<path d="M136.215 65.8213C138.138 67.1002 138.031 70.3049 136.261 71.7841C134.492 73.2632 131.691 73.0167 129.875 71.6146C129.583 71.3835 129.26 71.1215 128.89 71.1369C128.675 71.1369 128.475 71.2602 128.275 71.3527C126.043 72.5853 123.812 73.8179 121.581 75.0505C120.965 75.3894 120.319 75.7592 119.965 76.3755C119.611 76.9918 119.688 77.9163 120.319 78.2399C121.104 78.6404 122.073 77.7468 121.996 76.8532C121.919 75.9595 121.212 75.2816 120.458 74.8348" stroke="#444444" stroke-width="0.5" stroke-linecap="round" stroke-linejoin="round"/>
</g>
<defs>
<clipPath id="clip0_1969_31900">
<rect width="138" height="134" fill="white"/>
</clipPath>
</defs>
</svg>
