<svg width="30" height="17" viewBox="0 0 30 17" fill="none" xmlns="http://www.w3.org/2000/svg">
<path fill-rule="evenodd" clip-rule="evenodd" d="M15 4.5C15.8284 4.5 16.5 3.82843 16.5 3C16.5 2.17157 15.8284 1.5 15 1.5C14.1716 1.5 13.5 2.17157 13.5 3C13.5 3.82843 14.1716 4.5 15 4.5ZM15 6C16.6569 6 18 4.65685 18 3C18 1.34315 16.6569 0 15 0C13.3431 0 12 1.34315 12 3C12 4.65685 13.3431 6 15 6ZM6.5 4.65385C7.13725 4.65385 7.65385 4.13725 7.65385 3.5C7.65385 2.86275 7.13725 2.34615 6.5 2.34615C5.86275 2.34615 5.34615 2.86275 5.34615 3.5C5.34615 4.13725 5.86275 4.65385 6.5 4.65385ZM6.5 6C7.88071 6 9 4.88071 9 3.5C9 2.11929 7.88071 1 6.5 1C5.11929 1 4 2.11929 4 3.5C4 4.88071 5.11929 6 6.5 6ZM24.6538 3.5C24.6538 4.13725 24.1373 4.65385 23.5 4.65385C22.8627 4.65385 22.3462 4.13725 22.3462 3.5C22.3462 2.86275 22.8627 2.34615 23.5 2.34615C24.1373 2.34615 24.6538 2.86275 24.6538 3.5ZM26 3.5C26 4.88071 24.8807 6 23.5 6C22.1193 6 21 4.88071 21 3.5C21 2.11929 22.1193 1 23.5 1C24.8807 1 26 2.11929 26 3.5ZM1.65455 14.2C1.65455 10.9871 3.93897 8.6 6.5 8.6C7.92094 8.6 9.25673 9.33483 10.1644 10.5378C9.37702 12.1888 9 14.2076 9 16.1463C9 16.6178 9.34189 17 9.76364 17C10.1854 17 10.5273 16.6178 10.5273 16.1463C10.5273 14.2463 10.9402 12.3386 11.7211 10.9356C12.4905 9.55319 13.5801 8.70732 15 8.70732C16.4199 8.70732 17.5095 9.55319 18.2789 10.9356C19.0598 12.3386 19.4727 14.2463 19.4727 16.1463C19.4727 16.6178 19.8146 17 20.2364 17C20.6581 17 21 16.6178 21 16.1463C21 14.2076 20.623 12.1888 19.8356 10.5378C20.7433 9.33483 22.0791 8.6 23.5 8.6C26.061 8.6 28.3455 10.9871 28.3455 14.2C28.3455 14.6418 28.7158 15 29.1727 15C29.6296 15 30 14.6418 30 14.2C30 10.3437 27.2049 7 23.5 7C21.6893 7 20.0959 7.79865 18.94 9.06548C17.9812 7.82841 16.6662 7 15 7C13.3338 7 12.0188 7.82841 11.06 9.06548C9.90405 7.79865 8.31068 7 6.5 7C2.7951 7 0 10.3437 0 14.2C0 14.6418 0.370383 15 0.827273 15C1.28416 15 1.65455 14.6418 1.65455 14.2Z" fill="#8E8E93"/>
</svg>
