<svg width="30" height="18" viewBox="0 0 30 18" fill="none" xmlns="http://www.w3.org/2000/svg">
<path d="M10.6324 17.6778C9.88048 17.6778 9.28609 17.0267 9.36997 16.2791C9.36997 16.2743 9.37094 16.2699 9.37142 16.2651C9.45239 15.5572 9.54111 14.8479 9.68171 14.1503C9.96387 12.7511 10.4375 11.4202 11.2351 10.2222C11.7684 9.42131 12.4268 8.74595 13.3038 8.30525C13.9729 7.96927 14.718 7.82479 15.4652 7.86843C16.7174 7.94212 17.7215 8.51082 18.5525 9.41937C19.318 10.2567 19.8266 11.2442 20.2125 12.3007C20.5941 13.345 20.8477 14.4223 20.963 15.5267C20.9853 15.7405 21.0076 16.028 21.0275 16.3232C21.0765 17.0558 20.4957 17.6774 19.7612 17.6774H10.6324V17.6778Z" fill="black"/>
<path d="M8.41635 15.7168H0.765368C0.32418 15.7168 -0.0239229 15.3454 0.00128791 14.9047C0.0803139 13.5104 0.374601 12.6168 0.856999 11.5793C1.37188 10.4725 2.07924 9.51398 3.07894 8.79256C3.93708 8.17344 4.89315 7.83455 5.95733 7.8554C7.05206 7.87673 8.01492 8.27235 8.86966 8.94431C9.30357 9.28514 9.67931 9.6827 10.0167 10.1186C10.0667 10.183 10.0778 10.2325 10.0352 10.3086C9.34769 11.5313 8.92687 12.8491 8.66118 14.2192C8.56567 14.7122 8.49877 15.2106 8.41683 15.7163H8.41635V15.7168Z" fill="black"/>
<path d="M20.1621 9.9266C20.5165 9.48492 20.9213 9.10046 21.381 8.77417C22.0665 8.28693 22.8223 7.97373 23.6616 7.8821C24.6157 7.77786 25.5141 7.97082 26.3557 8.42656C27.4689 9.02967 28.2722 9.93823 28.8831 11.0286C29.4343 12.0123 29.781 13.0678 29.9298 14.1838C29.9541 14.3661 29.9778 14.6323 29.9977 14.8921C30.0316 15.3367 29.6806 15.7168 29.2346 15.7168H21.986C21.7475 13.6752 21.2447 11.7117 20.1631 9.92708H20.1621V9.9266Z" fill="black"/>
<path d="M18.6456 3.4471C18.6451 5.34615 17.1053 6.88255 15.2043 6.88158C13.3043 6.88061 11.7587 5.33209 11.7616 3.43207C11.764 1.53302 13.315 -0.00580143 15.2203 1.64426e-05C17.1233 0.00583431 18.6466 1.53836 18.6456 3.4471V3.4471Z" fill="black"/>
<path d="M6.12749 0.489262C7.89466 0.493141 9.3181 1.92773 9.31422 3.70073C9.31034 5.45578 7.86557 6.89037 6.10809 6.88407C4.35061 6.87777 2.91651 5.43784 2.91699 3.68036C2.91796 1.91755 4.35885 0.484899 6.127 0.488777H6.12749V0.489262Z" fill="black"/>
<path d="M27.6923 3.68329C27.6991 5.43446 26.2641 6.8739 24.5008 6.88408C22.7632 6.89475 21.3198 5.4587 21.2956 3.73468C21.2714 1.98641 22.6832 0.495093 24.4731 0.489276C26.2519 0.483458 27.6856 1.9069 27.6923 3.68329V3.68329Z" fill="black"/>
</svg>
