<svg width="30" height="18" viewBox="0 0 30 18" fill="none" xmlns="http://www.w3.org/2000/svg">
<g clip-path="url(#clip0_1618_31754)">
<path d="M18.8337 8.95473C17.7395 7.52164 16.3943 6.73975 14.9902 6.73975C13.8844 6.73975 12.8145 7.22554 11.8753 8.13235C12.6202 7.48231 13.5409 7.06245 14.6744 7.0185C16.5412 6.94679 17.8818 7.75644 18.8337 8.95473Z" fill="#040000"/>
<path d="M23.924 5.94909C25.2822 5.72862 26.2045 4.44886 25.9841 3.09066C25.7636 1.73247 24.4838 0.810153 23.1256 1.03062C21.7674 1.25109 20.8451 2.53085 21.0656 3.88904C21.2861 5.24724 22.5658 6.16955 23.924 5.94909Z" fill="#040000"/>
<path d="M6.87437 5.95006C8.23257 5.7296 9.15488 4.44984 8.93442 3.09164C8.71395 1.73344 7.43419 0.81113 6.07599 1.0316C4.7178 1.25206 3.79548 2.53182 4.01595 3.89002C4.23642 5.24822 5.51618 6.17053 6.87437 5.95006Z" fill="#040000"/>
<path d="M10.0027 8.16478C9.01029 7.43609 7.81432 7.01392 6.47492 7.01392C2.92979 7.01392 0.436057 9.89166 0.00694069 13.645C-0.0636149 14.2661 0.419864 14.8109 1.04561 14.8109H7.57374C7.81432 12.5381 8.50715 10.4364 9.58631 8.76508C9.72163 8.55573 9.86043 8.35679 10.0039 8.16594L10.0027 8.16478Z" fill="#040000"/>
<path d="M22.4089 14.8097H28.9544C29.5801 14.8097 30.0648 14.2638 29.9919 13.6427C29.5558 9.8905 27.0286 7.01392 23.5251 7.01392C22.1695 7.01392 20.9689 7.43494 19.9776 8.16363C20.1211 8.35447 20.261 8.55457 20.3963 8.76393C21.4755 10.4353 22.1683 12.5369 22.4089 14.8097V14.8097Z" fill="#040000"/>
<path d="M14.9786 0C13.3269 0 11.9875 1.3394 11.9875 2.99109C11.9875 4.09454 12.5855 5.05687 13.4738 5.5762C13.9157 5.83414 14.4304 5.98334 14.9786 5.98334C15.5269 5.98334 16.0485 5.83298 16.4927 5.57158C17.3763 5.05224 17.9709 4.09107 17.9709 2.99225C17.9709 1.34056 16.6315 0.00115665 14.9798 0.00115665L14.9786 0Z" fill="#040000"/>
<path opacity="0.46" d="M18.954 9.10983C18.9147 9.05778 18.8754 9.00573 18.8349 8.95483C18.8742 9.00688 18.9135 9.05893 18.9517 9.11214C18.9517 9.11214 18.9528 9.11098 18.954 9.10983Z" fill="#7BC16D"/>
<path opacity="0.58" d="M18.954 9.10983C18.9147 9.05778 18.8754 9.00573 18.8349 8.95483C18.8742 9.00688 18.9135 9.05893 18.9517 9.11214C18.9517 9.11214 18.9528 9.11098 18.954 9.10983Z" fill="#C8161E"/>
<path d="M20.9307 14.8097C20.7653 13.3778 20.3778 11.6231 19.5994 10.1415C19.4826 9.92633 19.36 9.71697 19.2304 9.51687C19.1402 9.37692 19.0465 9.24275 18.9517 9.1132C18.9124 9.06 18.8742 9.00679 18.8349 8.9559C17.8818 7.75761 16.5424 6.94796 14.6756 7.01967C13.542 7.06362 12.6225 7.48349 11.8765 8.13352C11.5561 8.41343 11.2681 8.73498 11.009 9.08776C10.6435 9.58743 10.337 10.1484 10.0825 10.7383C9.50418 12.0777 9.19073 13.5628 9.04731 14.812C8.98948 15.3094 8.9594 15.7697 8.95015 16.1664C8.93858 16.636 9.31681 17.0224 9.78641 17.0224H20.1951C20.667 17.0224 21.0441 16.6337 21.0313 16.1618C21.0198 15.7674 20.9897 15.3082 20.9319 14.8109L20.9307 14.8097Z" fill="#040000"/>
<path opacity="0.46" d="M19.2304 9.51688C19.36 9.71814 19.4826 9.92749 19.5994 10.1415C19.4086 9.77828 19.1946 9.43129 18.954 9.10974C18.954 9.10974 18.9528 9.1109 18.9517 9.11205C19.0465 9.24276 19.1402 9.37577 19.2304 9.51572V9.51688Z" fill="#7BC16D"/>
<path opacity="0.46" d="M19.2304 9.51688C19.36 9.71814 19.4826 9.92749 19.5994 10.1415C19.4086 9.77828 19.1946 9.43129 18.954 9.10974C18.954 9.10974 18.9528 9.1109 18.9517 9.11205C19.0465 9.24276 19.1402 9.37577 19.2304 9.51572V9.51688Z" fill="#7BC16D"/>
<path opacity="0.58" d="M19.2304 9.51688C19.36 9.71814 19.4826 9.92749 19.5994 10.1415C19.4086 9.77828 19.1946 9.43129 18.954 9.10974C18.954 9.10974 18.9528 9.1109 18.9517 9.11205C19.0465 9.24276 19.1402 9.37577 19.2304 9.51572V9.51688Z" fill="#C8161E"/>
</g>
<defs>
<clipPath id="clip0_1618_31754">
<rect width="30" height="17.0212" fill="white"/>
</clipPath>
</defs>
</svg>
