<svg width="15" height="18" viewBox="0 0 15 18" fill="none" xmlns="http://www.w3.org/2000/svg">
<g clip-path="url(#clip0_1618_31794)">
<path d="M7.14861 -2.67635e-06C5.21317 -2.67635e-06 3.64435 1.56882 3.64435 3.50426C3.64435 4.79659 4.34471 5.92448 5.38613 6.53227C5.90379 6.83435 6.50671 7.00852 7.14983 7.00852C7.79295 7.00852 8.40318 6.83191 8.92328 6.52618C9.9586 5.91717 10.6553 4.79171 10.6553 3.50304C10.6553 1.5676 9.08649 -0.0012207 7.15105 -0.0012207L7.14861 -2.67635e-06Z" fill="#040000"/>
<path d="M14.1778 15.849C13.9817 14.4543 13.5237 12.7479 12.6017 11.3057C12.4628 11.0962 12.3191 10.8928 12.1656 10.6979C12.0585 10.5615 11.9476 10.4312 11.8356 10.3045C11.7893 10.2521 11.743 10.201 11.6967 10.151C10.4019 8.75638 8.80998 7.99512 7.14859 7.99512C5.83921 7.99512 4.57368 8.46893 3.46162 9.35078C3.0816 9.6224 2.74177 9.93543 2.43604 10.2789C2.00364 10.7649 1.64067 11.3106 1.33982 11.8855C0.655287 13.1888 0.285007 14.6346 0.114483 15.8502C0.0462734 16.3349 0.0109506 16.782 -1.16592e-05 17.1693C-0.01341 17.6261 0.433606 18.0024 0.989026 18.0024H13.3069C13.8648 18.0024 14.3118 17.6236 14.296 17.1656C14.2826 16.782 14.246 16.3349 14.1778 15.8514V15.849Z" fill="#040000"/>
</g>
<defs>
<clipPath id="clip0_1618_31794">
<rect width="14.2972" height="18" fill="white"/>
</clipPath>
</defs>
</svg>
