<svg width="14" height="22" viewBox="0 0 14 22" fill="none" xmlns="http://www.w3.org/2000/svg">
<path d="M1.52424 21.2103C0.62202 21.2103 -0.0911481 20.4291 0.00948654 19.5321C0.00948654 19.5263 0.0106499 19.5211 0.0112316 19.5153C0.108376 18.666 0.214827 17.8149 0.383521 16.9779C0.722073 15.2991 1.2904 13.7023 2.2473 12.2649C2.88717 11.3039 3.67713 10.4936 4.72943 9.96486C5.53218 9.56174 6.42625 9.38839 7.32266 9.44074C8.8252 9.52916 10.0299 10.2115 11.0269 11.3016C11.9455 12.3062 12.5557 13.4911 13.0187 14.7587C13.4765 16.0117 13.7807 17.3042 13.9192 18.6293C13.9459 18.8859 13.9727 19.2308 13.9965 19.5851C14.0553 20.464 13.3584 21.2098 12.4771 21.2098H1.52424V21.2103Z" fill="black"/>
<path d="M11.1388 4.13593C11.1382 6.41446 9.29069 8.25788 7.00983 8.25671C4.73013 8.25555 2.87567 6.39759 2.87916 4.1179C2.88206 1.83937 4.74293 -0.00696071 7.02903 1.97283e-05C9.31221 0.00700017 11.1399 1.84576 11.1388 4.13593V4.13593Z" fill="black"/>
</svg>
