<svg width="15" height="18" viewBox="0 0 15 18" fill="none" xmlns="http://www.w3.org/2000/svg">
<path fill-rule="evenodd" clip-rule="evenodd" d="M8.80529 3.42858C8.80529 4.37536 8.00542 5.14287 7.01871 5.14287C6.03201 5.14287 5.23214 4.37536 5.23214 3.42858C5.23214 2.4818 6.03201 1.71429 7.01871 1.71429C8.00542 1.71429 8.80529 2.4818 8.80529 3.42858ZM10.5919 3.42858C10.5919 5.32213 8.99212 6.85716 7.01871 6.85716C5.04531 6.85716 3.44556 5.32213 3.44556 3.42858C3.44556 1.53503 5.04531 0 7.01871 0C8.99212 0 10.5919 1.53503 10.5919 3.42858ZM1.78658 17.1427C1.78658 15.2349 2.26961 13.3194 3.18311 11.9106C4.08313 10.5226 5.35773 9.67327 7.0187 9.67327C8.67968 9.67327 9.95428 10.5226 10.8543 11.9106C11.7678 13.3194 12.2508 15.2349 12.2508 17.1427C12.2508 17.6161 12.6508 17.9998 13.1441 17.9998C13.6375 17.9998 14.0374 17.6161 14.0374 17.1427C14.0374 14.9929 13.4995 12.7451 12.3712 11.005C11.2294 9.24413 9.44134 7.95898 7.0187 7.95898C4.59607 7.95898 2.80796 9.24413 1.66618 11.005C0.537867 12.7451 0 14.9929 0 17.1427C0 17.6161 0.399939 17.9998 0.89329 17.9998C1.38664 17.9998 1.78658 17.6161 1.78658 17.1427Z" fill="#8E8E93"/>
</svg>
