<svg width="20" height="19" viewBox="0 0 20 19" fill="none" xmlns="http://www.w3.org/2000/svg">
<path fill-rule="evenodd" clip-rule="evenodd" d="M3.82983 1.06383C3.82983 0.476293 4.30613 0 4.89366 0H5.3192C5.90673 0 6.38303 0.476293 6.38303 1.06383V1.70215H14.0425V1.06383C14.0425 0.476293 14.5188 0 15.1063 0H15.1064H15.5318H15.532C16.1195 0 16.5958 0.476293 16.5958 1.06383V1.70215H17.8723C19.0474 1.70215 20 2.65473 20 3.82981V16.1702C20 17.3453 19.0474 18.2979 17.8723 18.2979H2.12766C0.952585 18.2979 0 17.3453 0 16.1702V3.82981C0 2.65473 0.952586 1.70215 2.12766 1.70215H3.82983V1.06383ZM15.5318 3.82979H15.1064H15.1063C14.6701 3.82979 14.2952 3.56722 14.131 3.19151H6.2945C6.13033 3.56722 5.75543 3.82979 5.3192 3.82979H4.89366C4.45743 3.82979 4.08253 3.56722 3.91836 3.19151H2.12766C1.77514 3.19151 1.48936 3.47729 1.48936 3.82981V4.78711H18.5106V3.82981C18.5106 3.47729 18.2249 3.19151 17.8723 3.19151H16.5073C16.3431 3.56722 15.9682 3.82979 15.532 3.82979H15.5318ZM1.48936 16.1702V6.27659H18.5106V16.1702C18.5106 16.5228 18.2249 16.8085 17.8723 16.8085H2.12766C1.77514 16.8085 1.48936 16.5228 1.48936 16.1702ZM9.99998 7.76599C10.3277 7.76599 10.6169 7.9802 10.7123 8.29368L11.2681 10.1183H13.0353C13.3536 10.1183 13.6368 10.3207 13.7399 10.6219C13.8429 10.9231 13.7431 11.2565 13.4914 11.4516L12.0213 12.5909L12.5883 14.452C12.6828 14.7623 12.5656 15.098 12.2986 15.2821C12.0316 15.4662 11.6761 15.4563 11.4197 15.2576L9.99998 14.1574L8.58024 15.2576C8.32388 15.4563 7.96841 15.4662 7.70139 15.2821C7.43437 15.098 7.3172 14.7623 7.41171 14.452L7.97864 12.5909L6.50853 11.4516C6.25689 11.2565 6.15705 10.9231 6.26011 10.6219C6.36317 10.3207 6.64633 10.1183 6.9647 10.1183H8.73182L9.28762 8.29368C9.38311 7.9802 9.67229 7.76599 9.99998 7.76599Z" fill="#8E8E93"/>
</svg>
