<svg width="8" height="9" viewBox="0 0 8 9" fill="none" xmlns="http://www.w3.org/2000/svg">
<path fill-rule="evenodd" clip-rule="evenodd" d="M4.71235 1.2938C4.61686 0.980327 4.32768 0.766113 3.99998 0.766113C3.67229 0.766113 3.38311 0.980327 3.28762 1.2938L2.73182 3.1184H0.964697C0.646327 3.1184 0.363172 3.32079 0.260112 3.62202C0.157052 3.92324 0.256887 4.25667 0.508534 4.45169L1.97864 5.59099L1.41171 7.45215C1.3172 7.76241 1.43437 8.09816 1.70139 8.28225C1.96841 8.46634 2.32388 8.45644 2.58024 8.25776L3.99998 7.15749L5.41973 8.25776C5.67609 8.45644 6.03155 8.46634 6.29858 8.28225C6.5656 8.09816 6.68277 7.76241 6.58826 7.45215L6.02133 5.59099L7.49143 4.45169C7.74308 4.25667 7.84291 3.92324 7.73985 3.62202C7.6368 3.32079 7.35364 3.1184 7.03527 3.1184H5.26814L4.71235 1.2938Z" fill="#8E8E93"/>
</svg>
