<svg width="21" height="18" viewBox="0 0 21 18" fill="none" xmlns="http://www.w3.org/2000/svg">
<path d="M20.3456 6.27295C20.3456 6.33128 20.3456 6.38326 20.3456 6.4347C20.3456 9.57263 20.3461 12.7106 20.3456 15.8485C20.3456 16.915 19.6241 17.7608 18.5398 17.9634C18.3978 17.9899 18.2498 17.9979 18.1045 17.9979C12.8205 17.9995 7.53638 18 2.25285 17.999C1.12576 17.999 0.261253 17.3154 0.039781 16.2499C0.0129193 16.1211 0.00469635 15.9869 0.00469635 15.8554C0.00305176 12.7132 0.00305176 9.57104 0.00305176 6.42886V6.27348H20.3456V6.27295ZM10.1749 13.6779C10.7954 14.1398 11.4056 14.5937 12.0162 15.0477C12.224 15.202 12.4164 15.2158 12.593 15.0922C12.7536 14.9798 12.7996 14.7985 12.7267 14.5688C12.5009 13.8582 12.2783 13.147 12.048 12.438C12.0168 12.3409 12.0354 12.2895 12.1177 12.2296C12.7201 11.7867 13.3188 11.3391 13.9185 10.8931C14.0846 10.7696 14.1416 10.5951 14.0775 10.4121C14.0188 10.2446 13.8565 10.1327 13.6554 10.1316C13.0852 10.1295 12.5146 10.1311 11.9444 10.1305C11.7394 10.1305 11.5344 10.1305 11.3244 10.1305C11.3096 10.0892 11.2959 10.0531 11.2839 10.016C11.0564 9.30163 10.8294 8.58676 10.6014 7.87294C10.529 7.64649 10.3821 7.53194 10.1727 7.53353C9.96544 7.53512 9.81962 7.65126 9.74726 7.87824C9.60089 8.33591 9.45672 8.79464 9.3109 9.25231C9.2177 9.54505 9.12396 9.83726 9.02967 10.1305C8.25013 10.1305 7.48375 10.1305 6.71737 10.1305C6.49535 10.1305 6.33692 10.2339 6.27333 10.4164C6.20865 10.6015 6.26785 10.7701 6.44656 10.9032C7.03149 11.3386 7.61313 11.7777 8.20408 12.2052C8.31811 12.2874 8.32907 12.3568 8.2896 12.4777C8.05881 13.1868 7.8357 13.8974 7.61203 14.6086C7.52322 14.8918 7.68604 15.1384 7.97384 15.1702C8.14543 15.1893 8.26603 15.0986 8.39047 15.0058C8.98198 14.564 9.57458 14.1239 10.1749 13.6768V13.6779Z" fill="black"/>
<path d="M4.02568 1.67473C4.02568 1.47162 4.02239 1.28335 4.02623 1.09456C4.0328 0.812956 4.11723 0.555218 4.31019 0.340436C4.50096 0.128307 4.73779 -3.20393e-05 5.0371 0.00314991C5.15551 0.00421056 5.27502 0.0095138 5.39288 0.00208926C6.0255 -0.0382154 6.45803 0.511731 6.47119 1.03728C6.47612 1.24358 6.47228 1.45041 6.47228 1.66572H14.5385C14.5385 1.4451 14.5352 1.22979 14.539 1.01501C14.5467 0.554687 14.8816 0.108154 15.3405 0.0339087C15.6343 -0.0138205 15.9561 -0.00957788 16.2466 0.0524701C16.6841 0.146338 16.9768 0.602947 16.9823 1.08872C16.9845 1.27805 16.9823 1.46685 16.9823 1.67473C17.0426 1.67473 17.0909 1.67473 17.1391 1.67473C17.4949 1.67473 17.8512 1.67473 18.207 1.67473C19.3045 1.67579 20.2583 2.5275 20.3263 3.58443C20.3499 3.94823 20.3302 4.31416 20.3302 4.69228C20.2808 4.6944 20.2326 4.69811 20.1843 4.69811C13.5122 4.69811 6.84012 4.69811 0.16856 4.70077C0.0391856 4.70077 -0.00686295 4.67107 0.000811814 4.54114C0.0238361 4.14552 -0.000832777 3.74406 0.0605653 3.3548C0.193229 2.51583 0.954675 1.82428 1.82686 1.70125C1.93924 1.68534 2.05326 1.67632 2.16674 1.67579C2.77798 1.67314 3.38977 1.67473 4.02623 1.67473H4.02568ZM16.16 1.96164C16.16 1.67951 16.1617 1.39684 16.1595 1.11471C16.1584 0.954022 16.0827 0.882428 15.9166 0.879777C15.8207 0.878186 15.7253 0.879246 15.6294 0.879777C15.4183 0.880837 15.3542 0.940764 15.352 1.14918C15.3492 1.38305 15.3514 1.61693 15.3514 1.8508C15.3514 2.15096 15.3503 2.4506 15.3514 2.75076C15.3525 2.99047 15.415 3.0504 15.6579 3.05146C15.7215 3.05146 15.7856 3.05146 15.8492 3.05146C16.092 3.05146 16.1595 2.98676 16.1595 2.7566C16.1595 2.49196 16.1595 2.22733 16.1595 1.9627L16.16 1.96164ZM5.65163 1.97225C5.65163 1.68587 5.65382 1.39896 5.65108 1.11259C5.64944 0.952961 5.57817 0.882958 5.42194 0.879777C5.3123 0.877655 5.2032 0.878186 5.09357 0.879777C4.92472 0.881898 4.85017 0.949779 4.84962 1.11259C4.84797 1.68163 4.84797 2.25014 4.84962 2.81917C4.84962 2.9682 4.93185 3.04509 5.08699 3.0504C5.18731 3.05411 5.28763 3.05252 5.38795 3.05093C5.57927 3.04774 5.64999 2.97986 5.65108 2.79266C5.65273 2.51954 5.65108 2.24589 5.65108 1.97278L5.65163 1.97225Z" fill="black"/>
</svg>
